<mxfile host="app.diagrams.net" modified="2023-06-07T14:28:22.654Z" agent="Mozilla/5.0 (Windows NT 10.0; Win64; x64) AppleWebKit/537.36 (KHTML, like Gecko) Chrome/113.0.0.0 Safari/537.36" etag="iLRSzWn1C3l4tpZDsmzn" version="21.3.7" type="google">
  <diagram name="第 1 頁" id="tqWjf8qeasK-3PdkOoki">
    <mxGraphModel grid="1" page="1" gridSize="10" guides="1" tooltips="1" connect="1" arrows="1" fold="1" pageScale="1" pageWidth="827" pageHeight="1169" math="0" shadow="0">
      <root>
        <mxCell id="0" />
        <mxCell id="1" parent="0" />
        <mxCell id="Wwa_wzFIlhPrWcQzLWcE-16" style="edgeStyle=orthogonalEdgeStyle;rounded=0;orthogonalLoop=1;jettySize=auto;html=1;exitX=1;exitY=0.25;exitDx=0;exitDy=0;entryX=0;entryY=0.5;entryDx=0;entryDy=0;strokeWidth=2;" edge="1" parent="1" source="Wwa_wzFIlhPrWcQzLWcE-2" target="Wwa_wzFIlhPrWcQzLWcE-4">
          <mxGeometry relative="1" as="geometry" />
        </mxCell>
        <mxCell id="Wwa_wzFIlhPrWcQzLWcE-17" style="edgeStyle=orthogonalEdgeStyle;rounded=0;orthogonalLoop=1;jettySize=auto;html=1;exitX=1;exitY=0.5;exitDx=0;exitDy=0;entryX=0;entryY=0.5;entryDx=0;entryDy=0;strokeWidth=2;" edge="1" parent="1" source="Wwa_wzFIlhPrWcQzLWcE-2" target="Wwa_wzFIlhPrWcQzLWcE-5">
          <mxGeometry relative="1" as="geometry" />
        </mxCell>
        <mxCell id="Wwa_wzFIlhPrWcQzLWcE-18" style="edgeStyle=orthogonalEdgeStyle;rounded=0;orthogonalLoop=1;jettySize=auto;html=1;exitX=1;exitY=0.75;exitDx=0;exitDy=0;entryX=0;entryY=0.5;entryDx=0;entryDy=0;strokeWidth=2;" edge="1" parent="1" source="Wwa_wzFIlhPrWcQzLWcE-2" target="Wwa_wzFIlhPrWcQzLWcE-6">
          <mxGeometry relative="1" as="geometry" />
        </mxCell>
        <mxCell id="Wwa_wzFIlhPrWcQzLWcE-2" value="Source data" style="rounded=1;whiteSpace=wrap;html=1;fillColor=#d5e8d4;strokeColor=#82b366;" vertex="1" parent="1">
          <mxGeometry x="40" y="260" width="120" height="60" as="geometry" />
        </mxCell>
        <mxCell id="Wwa_wzFIlhPrWcQzLWcE-21" style="edgeStyle=orthogonalEdgeStyle;rounded=0;orthogonalLoop=1;jettySize=auto;html=1;exitX=1;exitY=0.5;exitDx=0;exitDy=0;entryX=0;entryY=0.5;entryDx=0;entryDy=0;strokeWidth=2;" edge="1" parent="1" source="Wwa_wzFIlhPrWcQzLWcE-4" target="Wwa_wzFIlhPrWcQzLWcE-8">
          <mxGeometry relative="1" as="geometry" />
        </mxCell>
        <mxCell id="Wwa_wzFIlhPrWcQzLWcE-4" value="train" style="rounded=1;whiteSpace=wrap;html=1;fillColor=#ffe6cc;strokeColor=#d79b00;" vertex="1" parent="1">
          <mxGeometry x="210" y="170" width="120" height="60" as="geometry" />
        </mxCell>
        <mxCell id="Wwa_wzFIlhPrWcQzLWcE-22" style="edgeStyle=orthogonalEdgeStyle;rounded=0;orthogonalLoop=1;jettySize=auto;html=1;exitX=1;exitY=0.25;exitDx=0;exitDy=0;entryX=0;entryY=0.5;entryDx=0;entryDy=0;strokeWidth=2;" edge="1" parent="1" source="Wwa_wzFIlhPrWcQzLWcE-5" target="Wwa_wzFIlhPrWcQzLWcE-8">
          <mxGeometry relative="1" as="geometry" />
        </mxCell>
        <mxCell id="Wwa_wzFIlhPrWcQzLWcE-24" style="edgeStyle=orthogonalEdgeStyle;rounded=0;orthogonalLoop=1;jettySize=auto;html=1;exitX=1;exitY=0.75;exitDx=0;exitDy=0;strokeWidth=2;" edge="1" parent="1" source="Wwa_wzFIlhPrWcQzLWcE-5" target="Wwa_wzFIlhPrWcQzLWcE-9">
          <mxGeometry relative="1" as="geometry" />
        </mxCell>
        <mxCell id="Wwa_wzFIlhPrWcQzLWcE-5" value="purchase, login, user_info" style="rounded=1;whiteSpace=wrap;html=1;fillColor=#ffe6cc;strokeColor=#d79b00;" vertex="1" parent="1">
          <mxGeometry x="210" y="260" width="120" height="60" as="geometry" />
        </mxCell>
        <mxCell id="Wwa_wzFIlhPrWcQzLWcE-23" style="edgeStyle=orthogonalEdgeStyle;rounded=0;orthogonalLoop=1;jettySize=auto;html=1;exitX=1;exitY=0.5;exitDx=0;exitDy=0;entryX=0;entryY=0.5;entryDx=0;entryDy=0;strokeWidth=2;" edge="1" parent="1" source="Wwa_wzFIlhPrWcQzLWcE-6" target="Wwa_wzFIlhPrWcQzLWcE-9">
          <mxGeometry relative="1" as="geometry" />
        </mxCell>
        <mxCell id="Wwa_wzFIlhPrWcQzLWcE-6" value="submission" style="rounded=1;whiteSpace=wrap;html=1;fillColor=#ffe6cc;strokeColor=#d79b00;" vertex="1" parent="1">
          <mxGeometry x="210" y="350" width="120" height="60" as="geometry" />
        </mxCell>
        <mxCell id="Wwa_wzFIlhPrWcQzLWcE-25" style="edgeStyle=orthogonalEdgeStyle;rounded=0;orthogonalLoop=1;jettySize=auto;html=1;exitX=1;exitY=0.5;exitDx=0;exitDy=0;entryX=0;entryY=0.5;entryDx=0;entryDy=0;strokeWidth=2;" edge="1" parent="1" source="Wwa_wzFIlhPrWcQzLWcE-8" target="Wwa_wzFIlhPrWcQzLWcE-11">
          <mxGeometry relative="1" as="geometry" />
        </mxCell>
        <mxCell id="Wwa_wzFIlhPrWcQzLWcE-8" value="train" style="rounded=1;whiteSpace=wrap;html=1;fillColor=#dae8fc;strokeColor=#6c8ebf;" vertex="1" parent="1">
          <mxGeometry x="400" y="210" width="120" height="60" as="geometry" />
        </mxCell>
        <mxCell id="Wwa_wzFIlhPrWcQzLWcE-26" style="edgeStyle=orthogonalEdgeStyle;shape=connector;rounded=0;orthogonalLoop=1;jettySize=auto;html=1;exitX=1;exitY=0.5;exitDx=0;exitDy=0;entryX=0;entryY=0.5;entryDx=0;entryDy=0;labelBackgroundColor=default;strokeColor=default;strokeWidth=2;fontFamily=Helvetica;fontSize=11;fontColor=default;endArrow=classic;" edge="1" parent="1" source="Wwa_wzFIlhPrWcQzLWcE-9" target="Wwa_wzFIlhPrWcQzLWcE-12">
          <mxGeometry relative="1" as="geometry" />
        </mxCell>
        <mxCell id="Wwa_wzFIlhPrWcQzLWcE-9" value="submission" style="rounded=1;whiteSpace=wrap;html=1;fillColor=#dae8fc;strokeColor=#6c8ebf;" vertex="1" parent="1">
          <mxGeometry x="400" y="310" width="120" height="60" as="geometry" />
        </mxCell>
        <mxCell id="Wwa_wzFIlhPrWcQzLWcE-10" value="BigQuery (Do feature engineering)" style="swimlane;whiteSpace=wrap;html=1;" vertex="1" parent="1">
          <mxGeometry x="200" y="130" width="330" height="300" as="geometry" />
        </mxCell>
        <mxCell id="Wwa_wzFIlhPrWcQzLWcE-27" style="edgeStyle=orthogonalEdgeStyle;shape=connector;rounded=0;orthogonalLoop=1;jettySize=auto;html=1;exitX=1;exitY=0.5;exitDx=0;exitDy=0;entryX=0;entryY=0.25;entryDx=0;entryDy=0;labelBackgroundColor=default;strokeColor=default;strokeWidth=2;fontFamily=Helvetica;fontSize=11;fontColor=default;endArrow=classic;" edge="1" parent="1" source="Wwa_wzFIlhPrWcQzLWcE-11" target="Wwa_wzFIlhPrWcQzLWcE-13">
          <mxGeometry relative="1" as="geometry" />
        </mxCell>
        <mxCell id="Wwa_wzFIlhPrWcQzLWcE-11" value="train.csv" style="rounded=1;whiteSpace=wrap;html=1;fillColor=#dae8fc;strokeColor=#6c8ebf;" vertex="1" parent="1">
          <mxGeometry x="550" y="210" width="120" height="60" as="geometry" />
        </mxCell>
        <mxCell id="Wwa_wzFIlhPrWcQzLWcE-28" style="edgeStyle=orthogonalEdgeStyle;shape=connector;rounded=0;orthogonalLoop=1;jettySize=auto;html=1;exitX=1;exitY=0.5;exitDx=0;exitDy=0;entryX=0;entryY=0.75;entryDx=0;entryDy=0;labelBackgroundColor=default;strokeColor=default;strokeWidth=2;fontFamily=Helvetica;fontSize=11;fontColor=default;endArrow=classic;" edge="1" parent="1" source="Wwa_wzFIlhPrWcQzLWcE-12" target="Wwa_wzFIlhPrWcQzLWcE-13">
          <mxGeometry relative="1" as="geometry" />
        </mxCell>
        <mxCell id="Wwa_wzFIlhPrWcQzLWcE-12" value="submission.csv" style="rounded=1;whiteSpace=wrap;html=1;fillColor=#dae8fc;strokeColor=#6c8ebf;" vertex="1" parent="1">
          <mxGeometry x="550" y="310" width="120" height="60" as="geometry" />
        </mxCell>
        <mxCell id="Wwa_wzFIlhPrWcQzLWcE-29" style="edgeStyle=orthogonalEdgeStyle;shape=connector;rounded=0;orthogonalLoop=1;jettySize=auto;html=1;exitX=1;exitY=0.5;exitDx=0;exitDy=0;entryX=0;entryY=0.5;entryDx=0;entryDy=0;labelBackgroundColor=default;strokeColor=default;strokeWidth=2;fontFamily=Helvetica;fontSize=11;fontColor=default;endArrow=classic;" edge="1" parent="1" source="Wwa_wzFIlhPrWcQzLWcE-13" target="Wwa_wzFIlhPrWcQzLWcE-14">
          <mxGeometry relative="1" as="geometry" />
        </mxCell>
        <mxCell id="Wwa_wzFIlhPrWcQzLWcE-13" value="LGBMClassifier" style="rounded=1;whiteSpace=wrap;html=1;fillColor=#f8cecc;strokeColor=#b85450;" vertex="1" parent="1">
          <mxGeometry x="707" y="260" width="120" height="60" as="geometry" />
        </mxCell>
        <mxCell id="Wwa_wzFIlhPrWcQzLWcE-30" style="edgeStyle=orthogonalEdgeStyle;shape=connector;rounded=0;orthogonalLoop=1;jettySize=auto;html=1;exitX=1;exitY=0.5;exitDx=0;exitDy=0;entryX=0;entryY=0.5;entryDx=0;entryDy=0;labelBackgroundColor=default;strokeColor=default;strokeWidth=2;fontFamily=Helvetica;fontSize=11;fontColor=default;endArrow=classic;" edge="1" parent="1" source="Wwa_wzFIlhPrWcQzLWcE-14" target="Wwa_wzFIlhPrWcQzLWcE-15">
          <mxGeometry relative="1" as="geometry" />
        </mxCell>
        <mxCell id="Wwa_wzFIlhPrWcQzLWcE-14" value="output.csv" style="rounded=1;whiteSpace=wrap;html=1;fillColor=#e1d5e7;strokeColor=#9673a6;" vertex="1" parent="1">
          <mxGeometry x="854" y="260" width="120" height="60" as="geometry" />
        </mxCell>
        <mxCell id="Wwa_wzFIlhPrWcQzLWcE-15" value="Kaggle" style="rounded=1;whiteSpace=wrap;html=1;fillColor=#e1d5e7;strokeColor=#9673a6;" vertex="1" parent="1">
          <mxGeometry x="1000" y="260" width="120" height="60" as="geometry" />
        </mxCell>
        <mxCell id="Wwa_wzFIlhPrWcQzLWcE-31" value="Training Cycle" style="swimlane;startSize=0;fontFamily=Helvetica;fontSize=20;fontColor=default;dashed=1;strokeWidth=2;strokeColor=#FF0000;" vertex="1" parent="1">
          <mxGeometry x="350" y="190" width="790" height="200" as="geometry" />
        </mxCell>
      </root>
    </mxGraphModel>
  </diagram>
</mxfile>
